<?xml version="1.0" encoding="utf-8"?>
<!-- Svg Vector Icons : http://www.onlinewebfonts.com/icon -->
<!DOCTYPE svg PUBLIC "-//W3C//DTD SVG 1.1//EN" "http://www.w3.org/Graphics/SVG/1.1/DTD/svg11.dtd">
<svg version="1.1" xmlns="http://www.w3.org/2000/svg" xmlns:xlink="http://www.w3.org/1999/xlink" x="0px" y="0px" viewBox="0 0 256 256" enable-background="new 0 0 256 256" xml:space="preserve">
<metadata> Svg Vector Icons : http://www.onlinewebfonts.com/icon </metadata>
<g><g><g><path fill="#000000" d="M115.7,10.5c-14.6,1.5-30,6.3-43.8,13.7C44.5,39.1,23.4,65.1,14.8,94.7c-12.2,42.1-0.7,86.5,30.3,117.2c9.2,9,18.3,15.7,29.3,21.3c12.5,6.4,22.9,9.6,38.4,12.1c5.2,0.8,25.1,0.8,30.6,0c27.1-4.1,50-15.5,68.6-34.3c18.4-18.5,29.4-40.9,33.4-67.7c0.8-5.5,0.8-25.4,0-30.6c-2.4-15.5-5.7-25.9-12.1-38.4c-18.1-35.6-53.8-60-93.5-63.9C133.7,9.9,121.8,9.9,115.7,10.5z M140.8,38.9c39.9,5.8,70.6,36.7,76.6,77c1.2,8,0.7,22.1-0.9,30c-3,14.3-9.2,27.3-18,38.4l-2.2,2.8l-0.8-2.9c-1.6-5.7-5.3-10.4-11.5-14.4c-6.6-4.4-29.9-17.2-31.2-17.2c-0.2,0-3.2,8.9-6.7,19.9c-3.4,11-6.4,20.1-6.6,20.3c-0.3,0.3-7.5-19.6-7.5-20.8c0-0.3,0.8-1.8,1.7-3.2c6.1-9.5,4-16.2-5-16.3c-3.8,0-7.2,1.1-8.5,3c-2,2.8-0.8,8.6,2.7,13.7c0.8,1.2,1.5,2.4,1.5,2.8c0,1.2-7.2,21.1-7.6,20.8c-0.1-0.2-3.1-9.3-6.5-20.1c-3.4-10.9-6.3-19.9-6.4-20c-0.5-0.6-23.9,12.2-31.4,17.2c-6.4,4.2-9.9,8.6-11.6,14.5l-0.8,2.7l-2-2.3c-9.6-11.6-16.8-27.9-19.1-43.9c-0.9-6.6-0.9-18.7,0-25.5C44.7,76,75.7,44.9,115,39C121.1,38.1,134.5,38,140.8,38.9z"/><path fill="#000000" d="M121.4,60.6c-12.7,2.3-20.9,10.2-24.3,23.2c-1.4,5.2-1.9,18.4-1,25.2c2.4,19.4,11,31,25,33.8c14.7,2.9,27.7-3.1,33.9-15.8c3.8-7.6,5.6-16.3,5.6-27.3c0-10.7-1.1-17.2-4-23.3c-4.2-8.7-11.8-14.2-22.1-16C129.6,59.7,126.3,59.7,121.4,60.6z"/></g></g></g>
</svg>